<?xml version="1.0" encoding="utf-8"?><svg viewBox="0 0 15 15" xmlns="http://www.w3.org/2000/svg" xmlns:xlink="http://www.w3.org/1999/xlink"><style>:root>svg{display:none}:root>svg:target{display:block}</style><svg fill="none" viewBox="0 0 10 6" id="arrow" xmlns="http://www.w3.org/2000/svg"><path fill-rule="evenodd" clip-rule="evenodd" d="M4.84 6L0 1.549.82 0l4.162 3.761L9.156 0 10 1.549 5.16 6h-.32z" fill="#FF6D00"/></svg><svg fill="none" viewBox="0 0 15 15" id="sign" xmlns="http://www.w3.org/2000/svg"><path d="M7.5 15a7.5 7.5 0 100-15 7.5 7.5 0 000 15z" fill="#FF6D00"/><path d="M7.754 9.032H7.24l-.249-5.17h1.01l-.248 5.17zm-.85 1.45c0-.442.196-.664.586-.664.189 0 .334.057.435.171.104.114.156.279.156.493 0 .209-.052.372-.156.489a.56.56 0 01-.435.17.6.6 0 01-.42-.15c-.11-.105-.166-.274-.166-.509z" fill="#fff"/></svg></svg>